<svg width="13" height="13" viewBox="0 0 13 13" fill="none" xmlns="http://www.w3.org/2000/svg">
<path fill-rule="evenodd" clip-rule="evenodd" d="M2.77778 12.7778H0.111115V4.77777H2.77778V12.7778Z" fill="white"/>
<path fill-rule="evenodd" clip-rule="evenodd" d="M1.43652 2.99998H1.42137C0.625579 2.99998 0.111115 2.40711 0.111115 1.66619C0.111115 0.909585 0.641248 0.333313 1.45214 0.333313C2.26303 0.333313 2.7624 0.909585 2.77778 1.66619C2.77778 2.40711 2.26303 2.99998 1.43652 2.99998Z" fill="white"/>
<path fill-rule="evenodd" clip-rule="evenodd" d="M12.5554 12.7776H9.93505V8.59586C9.93505 7.54551 9.55585 6.82878 8.60722 6.82878C7.88325 6.82878 7.45204 7.31196 7.26264 7.77865C7.19336 7.9459 7.17635 8.17893 7.17635 8.41253V12.7778H4.55554C4.55554 12.7778 4.59008 5.69496 4.55554 4.96152H7.17635V6.06863C7.52415 5.53642 8.14706 4.77777 9.53837 4.77777C11.2628 4.77777 12.5555 5.89515 12.5555 8.29596L12.5554 12.7776Z" fill="white"/>
</svg>
