<svg width="12" height="10" viewBox="0 0 12 10" fill="none" xmlns="http://www.w3.org/2000/svg">
<path fill-rule="evenodd" clip-rule="evenodd" d="M5.83311 2.71218L5.85816 3.1351L5.44068 3.08331C3.92107 2.8848 2.59349 2.21159 1.46631 1.08093L0.91524 0.519919L0.773298 0.934205C0.472715 1.85772 0.664754 2.83301 1.29097 3.48897C1.62495 3.85147 1.5498 3.90325 0.973686 3.68748C0.773298 3.61843 0.597958 3.56664 0.581259 3.59254C0.522812 3.65295 0.723201 4.43837 0.881842 4.74908C1.09893 5.18063 1.54145 5.60355 2.02573 5.85385L2.43485 6.05236L1.95058 6.06099C1.48301 6.06099 1.46631 6.06962 1.51641 6.25087C1.6834 6.81188 2.34301 7.40742 3.07777 7.66634L3.59544 7.84759L3.14456 8.12378C2.4766 8.52081 1.69175 8.74521 0.90689 8.76247C0.531161 8.77111 0.222229 8.80563 0.222229 8.83152C0.222229 8.91783 1.24087 9.40117 1.83369 9.59105C3.61214 10.1521 5.72457 9.91039 7.31098 8.95236C8.43816 8.27051 9.56535 6.91545 10.0914 5.60355C10.3753 4.90444 10.6591 3.62706 10.6591 3.01426C10.6591 2.61724 10.6842 2.56545 11.1518 2.09075C11.4273 1.81456 11.6861 1.51248 11.7362 1.42617C11.8197 1.26218 11.8114 1.26218 11.3855 1.40891C10.6758 1.66784 10.5756 1.63331 10.9263 1.24492C11.1852 0.968728 11.4941 0.468134 11.4941 0.321407C11.4941 0.295515 11.3688 0.33867 11.2269 0.416348C11.0766 0.502657 10.7426 0.632121 10.4921 0.7098L10.0413 0.856526L9.63215 0.571705C9.40671 0.416348 9.08943 0.24373 8.92244 0.191943C8.49661 0.0711107 7.84535 0.0883722 7.46127 0.226467C6.41758 0.614861 5.75797 1.61605 5.83311 2.71218Z" fill="white"/>
</svg>
